<svg width="50" height="51" viewBox="0 0 50 51" fill="none" xmlns="http://www.w3.org/2000/svg">
<path d="M17.1875 21.3438H32.8125C33.5938 21.3438 34.375 20.6602 34.375 19.7812V18.2188C34.375 17.4375 33.5938 16.6562 32.8125 16.6562H17.1875C16.3086 16.6562 15.625 17.4375 15.625 18.2188V19.7812C15.625 20.6602 16.3086 21.3438 17.1875 21.3438ZM15.625 29.1562C15.625 30.0352 16.3086 30.7188 17.1875 30.7188H32.8125C33.5938 30.7188 34.375 30.0352 34.375 29.1562V27.5938C34.375 26.8125 33.5938 26.0312 32.8125 26.0312H17.1875C16.3086 26.0312 15.625 26.8125 15.625 27.5938V29.1562ZM25 41.0703C23.3398 41.0703 21.7773 40.582 20.4102 39.5078L0 24.7617V45.5625C0 48.1992 2.05078 50.25 4.6875 50.25H45.3125C47.8516 50.25 50 48.1992 50 45.5625V24.7617L29.4922 39.5078C28.125 40.582 26.5625 41.0703 25 41.0703ZM48.1445 16.168C47.2656 15.582 46.4844 14.8984 45.3125 14.0195V9.625C45.3125 7.08594 43.1641 4.9375 40.625 4.9375H33.0078C32.7148 4.74219 32.4219 4.54688 32.1289 4.35156C30.4688 3.17969 27.2461 0.25 25 0.25C22.6562 0.25 19.4336 3.17969 17.7734 4.35156C17.4805 4.54688 17.1875 4.74219 16.8945 4.9375H9.375C6.73828 4.9375 4.6875 7.08594 4.6875 9.625V14.0195C3.41797 14.8984 2.63672 15.582 1.75781 16.168C0.683594 17.0469 0 18.4141 0 19.8789V20.9531L9.375 27.6914V9.625H40.625V27.6914L50 20.9531V19.8789C50 18.4141 49.3164 17.1445 48.1445 16.168Z" fill="#787DF4"/>
</svg>
